<svg width="199" height="50" viewBox="0 0 199 50" fill="none" xmlns="http://www.w3.org/2000/svg">
<rect width="199" height="50" rx="3" fill="#F8FAFC"/>
<rect width="57" height="50" rx="3" fill="#2CB1BC"/>
<path d="M20.9 32.2C20.22 32.2 19.5733 32.12 18.96 31.96C18.36 31.7867 17.82 31.5267 17.34 31.18C16.8733 30.82 16.5 30.3733 16.22 29.84C15.94 29.3067 15.7867 28.68 15.76 27.96C15.76 27.84 15.8 27.74 15.88 27.66C15.96 27.5667 16.0667 27.52 16.2 27.52H17.28C17.4267 27.52 17.54 27.5667 17.62 27.66C17.7133 27.74 17.7733 27.8467 17.8 27.98C17.8533 28.58 18.0267 29.0667 18.32 29.44C18.6133 29.8 18.9867 30.0667 19.44 30.24C19.8933 30.4133 20.3933 30.5 20.94 30.5C21.9533 30.5 22.7267 30.1667 23.26 29.5C23.7933 28.8333 24.06 27.9467 24.06 26.84V19.74H16.96C16.8267 19.74 16.7133 19.7 16.62 19.62C16.54 19.5267 16.5 19.4133 16.5 19.28V18.46C16.5 18.3267 16.54 18.22 16.62 18.14C16.7133 18.0467 16.8267 18 16.96 18H25.58C25.7267 18 25.84 18.0467 25.92 18.14C26.0133 18.22 26.06 18.3333 26.06 18.48V26.88C26.06 27.96 25.8533 28.9 25.44 29.7C25.0267 30.5 24.44 31.12 23.68 31.56C22.92 31.9867 21.9933 32.2 20.9 32.2ZM29.8758 32C29.7291 32 29.6158 31.96 29.5358 31.88C29.4558 31.7867 29.4158 31.6733 29.4158 31.54V18.48C29.4158 18.3333 29.4558 18.22 29.5358 18.14C29.6158 18.0467 29.7291 18 29.8758 18H30.8958C31.0424 18 31.1558 18.0467 31.2358 18.14C31.3291 18.22 31.3758 18.3333 31.3758 18.48V24H38.2558V18.48C38.2558 18.3333 38.2958 18.22 38.3758 18.14C38.4691 18.0467 38.5824 18 38.7158 18H39.7358C39.8824 18 39.9958 18.0467 40.0758 18.14C40.1691 18.22 40.2158 18.3333 40.2158 18.48V31.54C40.2158 31.6733 40.1691 31.7867 40.0758 31.88C39.9958 31.96 39.8824 32 39.7358 32H38.7158C38.5824 32 38.4691 31.96 38.3758 31.88C38.2958 31.7867 38.2558 31.6733 38.2558 31.54V25.8H31.3758V31.54C31.3758 31.6733 31.3291 31.7867 31.2358 31.88C31.1558 31.96 31.0424 32 30.8958 32H29.8758Z" fill="white"/>
<rect x="57" width="142" height="50" rx="3" fill="#F8FAFC"/>
<path d="M89.9 32.2C89.22 32.2 88.5733 32.12 87.96 31.96C87.36 31.7867 86.82 31.5267 86.34 31.18C85.8733 30.82 85.5 30.3733 85.22 29.84C84.94 29.3067 84.7867 28.68 84.76 27.96C84.76 27.84 84.8 27.74 84.88 27.66C84.96 27.5667 85.0667 27.52 85.2 27.52H86.28C86.4267 27.52 86.54 27.5667 86.62 27.66C86.7133 27.74 86.7733 27.8467 86.8 27.98C86.8533 28.58 87.0267 29.0667 87.32 29.44C87.6133 29.8 87.9867 30.0667 88.44 30.24C88.8933 30.4133 89.3933 30.5 89.94 30.5C90.9533 30.5 91.7267 30.1667 92.26 29.5C92.7933 28.8333 93.06 27.9467 93.06 26.84V19.74H85.96C85.8267 19.74 85.7133 19.7 85.62 19.62C85.54 19.5267 85.5 19.4133 85.5 19.28V18.46C85.5 18.3267 85.54 18.22 85.62 18.14C85.7133 18.0467 85.8267 18 85.96 18H94.58C94.7267 18 94.84 18.0467 94.92 18.14C95.0133 18.22 95.06 18.3333 95.06 18.48V26.88C95.06 27.96 94.8533 28.9 94.44 29.7C94.0267 30.5 93.44 31.12 92.68 31.56C91.92 31.9867 90.9933 32.2 89.9 32.2ZM102.416 32.2C101.402 32.2 100.556 32.0067 99.8758 31.62C99.1958 31.2333 98.6758 30.7 98.3158 30.02C97.9558 29.3267 97.7558 28.54 97.7158 27.66C97.7024 27.4333 97.6958 27.1467 97.6958 26.8C97.6958 26.44 97.7024 26.1533 97.7158 25.94C97.7558 25.0467 97.9558 24.26 98.3158 23.58C98.6891 22.9 99.2158 22.3667 99.8958 21.98C100.576 21.5933 101.416 21.4 102.416 21.4C103.416 21.4 104.256 21.5933 104.936 21.98C105.616 22.3667 106.136 22.9 106.496 23.58C106.869 24.26 107.076 25.0467 107.116 25.94C107.129 26.1533 107.136 26.44 107.136 26.8C107.136 27.1467 107.129 27.4333 107.116 27.66C107.076 28.54 106.876 29.3267 106.516 30.02C106.156 30.7 105.636 31.2333 104.956 31.62C104.276 32.0067 103.429 32.2 102.416 32.2ZM102.416 30.66C103.242 30.66 103.902 30.4 104.396 29.88C104.889 29.3467 105.156 28.5733 105.196 27.56C105.209 27.36 105.216 27.1067 105.216 26.8C105.216 26.4933 105.209 26.24 105.196 26.04C105.156 25.0267 104.889 24.26 104.396 23.74C103.902 23.2067 103.242 22.94 102.416 22.94C101.589 22.94 100.922 23.2067 100.416 23.74C99.9224 24.26 99.6624 25.0267 99.6358 26.04C99.6224 26.24 99.6158 26.4933 99.6158 26.8C99.6158 27.1067 99.6224 27.36 99.6358 27.56C99.6624 28.5733 99.9224 29.3467 100.416 29.88C100.922 30.4 101.589 30.66 102.416 30.66ZM114.78 32.2C113.98 32.2 113.313 32.06 112.78 31.78C112.247 31.4867 111.82 31.1267 111.5 30.7V31.54C111.5 31.6733 111.453 31.7867 111.36 31.88C111.28 31.96 111.173 32 111.04 32H110.12C109.987 32 109.873 31.96 109.78 31.88C109.7 31.7867 109.66 31.6733 109.66 31.54V18.26C109.66 18.1267 109.7 18.02 109.78 17.94C109.873 17.8467 109.987 17.8 110.12 17.8H111.08C111.227 17.8 111.34 17.8467 111.42 17.94C111.5 18.02 111.54 18.1267 111.54 18.26V22.86C111.873 22.4467 112.3 22.1 112.82 21.82C113.353 21.54 114.007 21.4 114.78 21.4C115.527 21.4 116.16 21.5333 116.68 21.8C117.213 22.0533 117.647 22.4067 117.98 22.86C118.327 23.3133 118.587 23.8267 118.76 24.4C118.933 24.9733 119.027 25.5733 119.04 26.2C119.053 26.4133 119.06 26.6133 119.06 26.8C119.06 26.9867 119.053 27.1867 119.04 27.4C119.027 28.04 118.933 28.6467 118.76 29.22C118.587 29.7933 118.327 30.3067 117.98 30.76C117.647 31.2 117.213 31.5533 116.68 31.82C116.16 32.0733 115.527 32.2 114.78 32.2ZM114.36 30.58C115.053 30.58 115.593 30.4333 115.98 30.14C116.38 29.8333 116.667 29.44 116.84 28.96C117.013 28.4667 117.113 27.94 117.14 27.38C117.153 26.9933 117.153 26.6067 117.14 26.22C117.113 25.66 117.013 25.14 116.84 24.66C116.667 24.1667 116.38 23.7733 115.98 23.48C115.593 23.1733 115.053 23.02 114.36 23.02C113.733 23.02 113.213 23.1667 112.8 23.46C112.387 23.7533 112.073 24.1267 111.86 24.58C111.66 25.0333 111.553 25.4933 111.54 25.96C111.527 26.1733 111.52 26.4333 111.52 26.74C111.52 27.0333 111.527 27.2867 111.54 27.5C111.567 27.9933 111.673 28.48 111.86 28.96C112.06 29.4267 112.36 29.8133 112.76 30.12C113.173 30.4267 113.707 30.58 114.36 30.58ZM122.255 32C122.108 32 121.995 31.96 121.915 31.88C121.835 31.7867 121.795 31.6733 121.795 31.54V18.48C121.795 18.3333 121.835 18.22 121.915 18.14C121.995 18.0467 122.108 18 122.255 18H123.275C123.421 18 123.535 18.0467 123.615 18.14C123.708 18.22 123.755 18.3333 123.755 18.48V24H130.635V18.48C130.635 18.3333 130.675 18.22 130.755 18.14C130.848 18.0467 130.961 18 131.095 18H132.115C132.261 18 132.375 18.0467 132.455 18.14C132.548 18.22 132.595 18.3333 132.595 18.48V31.54C132.595 31.6733 132.548 31.7867 132.455 31.88C132.375 31.96 132.261 32 132.115 32H131.095C130.961 32 130.848 31.96 130.755 31.88C130.675 31.7867 130.635 31.6733 130.635 31.54V25.8H123.755V31.54C123.755 31.6733 123.708 31.7867 123.615 31.88C123.535 31.96 123.421 32 123.275 32H122.255ZM139.673 32.2C138.819 32.2 138.093 32.0133 137.493 31.64C136.906 31.2533 136.459 30.72 136.153 30.04C135.846 29.36 135.693 28.58 135.693 27.7V22.06C135.693 21.9267 135.733 21.82 135.813 21.74C135.906 21.6467 136.019 21.6 136.153 21.6H137.153C137.286 21.6 137.393 21.6467 137.473 21.74C137.566 21.82 137.613 21.9267 137.613 22.06V27.6C137.613 29.5867 138.479 30.58 140.213 30.58C141.039 30.58 141.699 30.32 142.193 29.8C142.699 29.2667 142.953 28.5333 142.953 27.6V22.06C142.953 21.9267 142.993 21.82 143.073 21.74C143.166 21.6467 143.279 21.6 143.413 21.6H144.393C144.539 21.6 144.653 21.6467 144.733 21.74C144.813 21.82 144.853 21.9267 144.853 22.06V31.54C144.853 31.6733 144.813 31.7867 144.733 31.88C144.653 31.96 144.539 32 144.393 32H143.473C143.339 32 143.226 31.96 143.133 31.88C143.053 31.7867 143.013 31.6733 143.013 31.54V30.66C142.653 31.1267 142.213 31.5 141.693 31.78C141.186 32.06 140.513 32.2 139.673 32.2ZM148.284 32C148.15 32 148.037 31.96 147.944 31.88C147.864 31.7867 147.824 31.6733 147.824 31.54V22.06C147.824 21.9267 147.864 21.82 147.944 21.74C148.037 21.6467 148.15 21.6 148.284 21.6H149.224C149.357 21.6 149.464 21.6467 149.544 21.74C149.637 21.82 149.684 21.9267 149.684 22.06V22.94C150.03 22.4867 150.464 22.12 150.984 21.84C151.517 21.5467 152.197 21.4 153.024 21.4C153.89 21.4 154.624 21.5933 155.224 21.98C155.837 22.3533 156.297 22.88 156.604 23.56C156.91 24.2267 157.064 25.0067 157.064 25.9V31.54C157.064 31.6733 157.024 31.7867 156.944 31.88C156.864 31.96 156.757 32 156.624 32H155.624C155.49 32 155.377 31.96 155.284 31.88C155.204 31.7867 155.164 31.6733 155.164 31.54V26C155.164 25.0667 154.937 24.34 154.484 23.82C154.03 23.2867 153.364 23.02 152.484 23.02C151.657 23.02 150.99 23.2867 150.484 23.82C149.99 24.34 149.744 25.0667 149.744 26V31.54C149.744 31.6733 149.697 31.7867 149.604 31.88C149.524 31.96 149.417 32 149.284 32H148.284ZM163.876 32C163.129 32 162.523 31.86 162.056 31.58C161.589 31.2867 161.249 30.88 161.036 30.36C160.823 29.8267 160.716 29.2 160.716 28.48V23.2H159.156C159.023 23.2 158.909 23.16 158.816 23.08C158.736 22.9867 158.696 22.8733 158.696 22.74V22.06C158.696 21.9267 158.736 21.82 158.816 21.74C158.909 21.6467 159.023 21.6 159.156 21.6H160.716V18.26C160.716 18.1267 160.756 18.02 160.836 17.94C160.929 17.8467 161.043 17.8 161.176 17.8H162.116C162.249 17.8 162.356 17.8467 162.436 17.94C162.529 18.02 162.576 18.1267 162.576 18.26V21.6H165.056C165.189 21.6 165.296 21.6467 165.376 21.74C165.469 21.82 165.516 21.9267 165.516 22.06V22.74C165.516 22.8733 165.469 22.9867 165.376 23.08C165.296 23.16 165.189 23.2 165.056 23.2H162.576V28.34C162.576 28.9667 162.683 29.46 162.896 29.82C163.109 30.18 163.489 30.36 164.036 30.36H165.256C165.389 30.36 165.496 30.4067 165.576 30.5C165.669 30.58 165.716 30.6867 165.716 30.82V31.54C165.716 31.6733 165.669 31.7867 165.576 31.88C165.496 31.96 165.389 32 165.256 32H163.876Z" fill="#2CB1BC"/>
</svg>
